<svg width="24" height="24" xmlns="http://www.w3.org/2000/svg">
 <defs>
  <filter id="svg_2_blur">
   <feGaussianBlur stdDeviation="0" in="SourceGraphic"/>
  </filter>
 </defs>
 <g>
  <title>background</title>
  <rect fill="none" id="canvas_background" height="402" width="582" y="-1" x="-1"/>
 </g>
 <g>
  <title>Layer 1</title>
  <path id="svg_1" d="m19,2l-5,4.5l0,11l5,-4.5l0,-11m-12.5,3c-1.95,0 -4.05,0.4 -5.5,1.5l0,14.66c0,0.25 0.25,0.5 0.5,0.5c0.1,0 0.15,-0.07 0.25,-0.07c1.35,-0.65 3.3,-1.09 4.75,-1.09c1.95,0 4.05,0.4 5.5,1.5c1.35,-0.85 3.8,-1.5 5.5,-1.5c1.65,0 3.35,0.309999 4.75,1.059999c0.1,0.050001 0.15,0.030001 0.25,0.030001c0.25,0 0.5,-0.25 0.5,-0.5l0,-14.59c-0.6,-0.45 -1.25,-0.75 -2,-1l0,2l0,5.5l0,6c-1.1,-0.35 -2.299999,-0.5 -3.5,-0.5c-1.7,0 -4.15,0.65 -5.5,1.5l0,-7l0,-4.5l0,-2c-1.45,-1.1 -3.55,-1.5 -5.5,-1.5l0,0z"/>
  <rect id="svg_3" height="2.374982" width="2.68748" y="20.874934" x="21.062432" stroke-opacity="null" stroke="#ffffff" fill="#ffffff"/>
  <ellipse ry="5.687458" rx="5.593708" id="svg_4" cy="19.062447" cx="19.093697" stroke-opacity="null" stroke-width="0" stroke="#ffffff" fill="#ffffff"/>
  <path filter="url(#svg_2_blur)" id="svg_2" d="m14.436449,17.258595l2.973707,0l0,-2.891752l3.050446,0l0,2.891752l2.973717,0l0,2.966423l-2.973717,0l0,2.891729l-3.050446,0l0,-2.891729l-2.973707,0l0,-2.966423z" stroke="#ffffff" fill="#000000"/>
 </g>
</svg>